<svg style="position: absolute; width: 0; height: 0; overflow: hidden;" version="1.1" xmlns="http://www.w3.org/2000/svg" xmlns:xlink="http://www.w3.org/1999/xlink" preserveAspectRatio="xMidYMid slice">
  <defs>
    <symbol id="icon-loading" viewBox="0 0 50 50" >
      <g id="Page-1" stroke="none" stroke-width="1" fill-rule="evenodd">
          <g id="noun_1064823_cc" fill-rule="nonzero">
              <path d="M25,50 C11.25,50 0,38.75 0,25 C0,11.25 11.25,0 25,0 C26.6666667,0 28.3333333,1.25 28.3333333,3.33333333 C28.3333333,5.41666667 26.6666667,6.25 25,6.25 C14.5833333,6.25 6.25,14.5833333 6.25,25 C6.25,35.4166667 14.5833333,43.75 25,43.75 C35.4166667,43.75 43.75,35.4166667 43.75,25 C43.75,23.3333333 45,21.6666667 47.0833333,21.6666667 C49.1666667,21.6666667 50,23.3333333 50,25 C50,38.75 38.75,50 25,50 Z" id="Shape"></path>
          </g>
      </g>
    </symbol>
  </defs>
</svg>
